<svg data-v-0dd9719b="" version="1.0" xmlns="http://www.w3.org/2000/svg" xmlns:xlink="http://www.w3.org/1999/xlink" width="100%" height="100%" viewBox="0 0 340.000000 250.000000" preserveAspectRatio="xMidYMid meet" color-interpolation-filters="sRGB" style="margin: auto;"> <rect data-v-0dd9719b="" x="0" y="0" width="100%" height="100%" fill="#fff" fill-opacity="1" class="background"></rect> <rect data-v-0dd9719b="" x="0" y="0" width="100%" height="100%" fill="url(#watermark)" fill-opacity="1" class="watermarklayer"></rect> <g data-v-0dd9719b="" fill="#333" class="icon-text-wrapper icon-svg-group iconsvg" transform="translate(48.44248962402344,91.58758926391602)"><g class="iconsvg-imagesvg" transform="translate(0,0)"><g><rect fill="#333" fill-opacity="0" stroke-width="2" x="0" y="0" width="60" height="66.82481873767918" class="image-rect"></rect> <svg x="0" y="0" width="60" height="66.82481873767918" filtersec="colorsb6577164646" class="image-svg-svg primary" style="overflow: visible;"><svg xmlns="http://www.w3.org/2000/svg" viewBox="0 -0.0028373277746140957 89.81000518798828 100.02556610107422"><title>资源 134</title><path d="M64.35 47.87c-.58 0-1.17 0-1.74.05.34.73.66 1.46 1 2.2a64.86 64.86 0 0 1 5.14 25.46 65.77 65.77 0 0 1-1.34 13.26L84.44 79a11.89 11.89 0 0 0 5.37-9.28v-10a33.48 33.48 0 0 0-25.46-11.85zM21.49 69a9.3 9.3 0 0 1 9.3-9.31 9.07 9.07 0 0 1 1.66.15 39.44 39.44 0 0 1 4.73-5.73 38.15 38.15 0 0 1 15.09-9.32 58 58 0 0 0-41.94-26.64L5.38 21A11.9 11.9 0 0 0 0 30.28v39.44A11.9 11.9 0 0 0 5.38 79l22 12.68a38.86 38.86 0 0 1-1.19-14.63 9.3 9.3 0 0 1-4.7-8.05z" fill="#275cde"></path><path d="M84.44 21L50.28 1.28a11.86 11.86 0 0 0-10.73 0L20.29 12.4a64 64 0 0 1 8.49 2.92 65.23 65.23 0 0 1 20.79 14 65.61 65.61 0 0 1 10.52 13.76 37.62 37.62 0 0 1 4.26-.24 38.33 38.33 0 0 1 25.46 9.64v-22.2A11.92 11.92 0 0 0 84.44 21z" fill="#0a2183"></path><path d="M37 62.08a9.31 9.31 0 0 1-5.95 16.2c-.08 1-.13 2-.13 3a33.2 33.2 0 0 0 3.26 14.39l5.33 3.07a11.84 11.84 0 0 0 10.72 0l7.87-4.54a57.76 57.76 0 0 0-3.27-44.94A33.46 33.46 0 0 0 37 62.08z" fill="#01cfff"></path></svg></svg> <!----></g></g> <g transform="translate(67,5.731723785400391)"><g data-gra="path-name" fill-rule="" class="tp-name iconsvg-namesvg" transform="translate(0,0)"><g transform="scale(1)"><g><path d="M26.46-2.02L26.46-18.54 42.52-18.54 42.52-23.22 26.46-23.22 26.46-36 20.88-36 20.88-2.02 4.41-2.02 4.81 2.65 44.82 2.65 44.82-2.02ZM70.83-11.21L72.05-6.57 76.91-6.57 75.64-11.21ZM71.33-21.55L72.54-17.19 77.4-17.19 76.19-21.55ZM49.14-19.71L57.83-17.01 57.83-21.69 49.14-24.34ZM50.27-30.46L59.22-27.58 59.22-32.35 50.27-35.23ZM48.51 4.27L54.23 4.27C56.34-0.94 57.83-6.75 58.55-12.06L53.23-12.06C52.42-6.75 50.94-1.4 48.51 4.27ZM86.13-1.53L88.29-1.53 88.29-5.85 86.09-5.85 86.04-11.97 89.46-11.97 89.46-16.34 86.04-16.34 86-23.45C86.04-25.43 84.69-26.73 82.8-26.73L66.83-26.73C64.89-26.73 63.41-25.38 63.22-23.45L62.55-16.34 58.37-16.34 58.81-11.97 62.14-11.97 61.47-5C61.25-3.06 62.41-1.53 64.35-1.53L80.73-1.53 80.73-0.54C80.78 0 80.32 0.36 79.78 0.4 76.77 0.58 75.6 0.4 71.78-0.09L72.86 3.78C77.13 4.27 78.25 4.54 81.99 4.23 84.1 3.96 85.95 2.21 86.13 0.14ZM81.05-16.34L67.36-16.34 67.81-21.69C67.81-22.27 68-22.41 68.58-22.41L80.59-22.41C81.05-22.41 81.18-22.23 81.18-21.78ZM80.95-11.97L80.87-5.85 67.28-5.85C66.69-5.85 66.47-6.12 66.51-6.66L66.96-11.97ZM68.85-33.16C69.16-34.02 69.39-34.96 69.61-35.95L64.44-35.95C63.81-33.03 62.19-30.78 59.8-29.11L61.11-24.3C63.41-25.79 65.11-27.22 66.42-28.84L88.34-28.84 88.34-33.16ZM131.26-21.42L126.18-21.42 129.82-8.32 135.05-8.32ZM99.9-8.32L103.68-21.42 98.59-21.42 94.68-8.32ZM123.66-25.65L134.78-25.65 134.78-30.33 117.58-30.33 117.58-36 112.09-36 112.09-30.33 94.91-30.33 95.31-25.65 106.83-25.65 106.83-19.39C106.83-12.15 104.27-5.8 96.48-1.17L98.01 4.54C109.53-2.75 112.28-10.17 112.28-19.26L112.28-25.65 118.22-25.65 118.22-3.24C118.22-1.8 117.27-1.03 115.78-0.94 114.21-0.85 111.96-1.13 109.44-1.71L110.66 3.19C113.44 3.69 116.14 3.87 118.13 3.73 121.14 3.51 123.66 1.35 123.66-1.53ZM177.75-0.94L177.75-36 172.31-36 172.31-2.65C172.31-1.21 171.5-0.36 169.97-0.36 168.53-0.36 166.91-0.49 165.06-0.9L166.28 3.73C168.53 4.14 170.87 4.32 172.71 4.32 175.81 4.27 177.75 1.93 177.75-0.94ZM169.65-4.32L169.65-31.68 164.38-31.68 164.38-4.32ZM155.47-6.21C158.58-9.45 160.92-13.14 162.41-17.28L157.37-17.28C153.5-9.49 147.15-4.32 137.88-0.27L139.19 4.54C144.9 2.02 149.67-0.85 153.45-4.27L157.45 3.19 163.31 3.19 158.04-6.21ZM153.54-31.36L153.54-36 148.28-36 148.28-31.36 138.42-31.36 138.87-26.95 144.94-26.95C143.91-24.34 142.51-22.41 140.4-20.2L139.41-20.2 139.86-15.62 147.56-15.62C145.03-13.41 142.02-11.61 138.51-10.08L139.95-4.86C149.35-9.45 156.33-16.11 159.16-24.93L154.13-24.93C153.45-23.22 152.64-21.64 151.65-20.2L145.84-20.2C147.87-22.09 149.35-24.34 150.3-26.95L162.54-26.95 162.54-31.36Z" transform="translate(-4.409999847412109, 36)"></path></g> <!----> <!----> <!----> <!----> <!----> <!----> <!----></g></g> <g data-gra="path-slogan" fill-rule="" class="tp-slogan iconsvg-slogansvg" fill="#333" transform="translate(-2.7808303833007812,46.540000915527344)"><!----> <!----> <g transform="scale(1, 1)"><g transform="scale(1)"><path d="M7.07-6.00L7.07-6.00L6.00-6.00Q5.91-7.62 3.88-7.71L3.88-7.71Q1.99-7.67 1.99-6.23L1.99-6.23Q1.99-5.31 3.00-5.17L3.00-5.17L5.40-4.62Q7.30-4.16 7.30-2.31L7.30-2.31Q7.25 0.05 3.97 0.14L3.97 0.14Q2.17 0.14 1.43-0.60L1.43-0.60Q0.51-1.29 0.55-2.72L0.55-2.72L1.66-2.72Q1.71-0.79 3.97-0.74L3.97-0.74Q6.19-0.79 6.23-2.17L6.23-2.17Q6.42-3.32 4.39-3.69L4.39-3.69L2.63-4.06Q0.83-4.57 0.83-6.10L0.83-6.10Q0.97-8.59 3.79-8.68L3.79-8.68Q6.97-8.68 7.07-6.00ZM9.88-4.99L14.32-4.99L14.32-8.45L15.47-8.45L15.47 0L14.32 0L14.32-3.93L9.88-3.93L9.88 0L8.73 0L8.73-8.45L9.88-8.45L9.88-4.99ZM22.81 0L21.98-2.45L18.56-2.45L17.69 0L16.53 0L19.72-8.45L21.01-8.45L24.06 0L22.81 0ZM20.27-7.20L18.93-3.46L21.56-3.46L20.32-7.20L20.27-7.20ZM26.46-8.45L30.71-1.62L30.71-8.45L31.82-8.45L31.82 0L30.52 0L26.23-6.83L26.18-6.83L26.18 0L25.07 0L25.07-8.45L26.46-8.45ZM39.90-3.56L37.31-3.56L37.31-4.53L41.01-4.53L41.01 0L40.27 0L39.99-1.06Q39.02 0.09 37.22 0.14L37.22 0.14Q35.51 0.14 34.59-0.74L34.59-0.74Q33.20-2.03 33.25-4.29L33.25-4.29Q33.57-8.50 37.27-8.68L37.27-8.68Q40.41-8.50 40.87-5.91L40.87-5.91L39.76-5.91Q39.30-7.67 37.22-7.71L37.22-7.71Q34.59-7.53 34.45-4.25L34.45-4.25Q34.45-0.74 37.27-0.74L37.27-0.74Q38.28-0.74 39.02-1.29L39.02-1.29Q39.94-2.03 39.90-3.56L39.90-3.56ZM43.91-4.99L48.35-4.99L48.35-8.45L49.50-8.45L49.50 0L48.35 0L48.35-3.93L43.91-3.93L43.91 0L42.76 0L42.76-8.45L43.91-8.45L43.91-4.99ZM56.84 0L56.01-2.45L52.60-2.45L51.72 0L50.56 0L53.75-8.45L55.04-8.45L58.09 0L56.84 0ZM54.30-7.20L52.97-3.46L55.60-3.46L54.35-7.20L54.30-7.20ZM59.29-8.45L60.45-8.45L60.45 0L59.29 0L59.29-8.45ZM65.85-8.45L67.00-8.45L67.00 0L65.85 0L65.85-8.45ZM75.13-6.00L75.13-6.00L74.07-6.00Q73.98-7.62 71.94-7.71L71.94-7.71Q70.05-7.67 70.05-6.23L70.05-6.23Q70.05-5.31 71.07-5.17L71.07-5.17L73.47-4.62Q75.36-4.16 75.36-2.31L75.36-2.31Q75.32 0.05 72.04 0.14L72.04 0.14Q70.24 0.14 69.50-0.60L69.50-0.60Q68.57-1.29 68.62-2.72L68.62-2.72L69.73-2.72Q69.77-0.79 72.04-0.74L72.04-0.74Q74.25-0.79 74.30-2.17L74.30-2.17Q74.48-3.32 72.45-3.69L72.45-3.69L70.70-4.06Q68.90-4.57 68.90-6.10L68.90-6.10Q69.04-8.59 71.85-8.68L71.85-8.68Q75.04-8.68 75.13-6.00ZM85.66 0L84.83-2.45L81.41-2.45L80.53 0L79.38 0L82.57-8.45L83.86-8.45L86.91 0L85.66 0ZM83.12-7.20L81.78-3.46L84.41-3.46L83.17-7.20L83.12-7.20ZM87.92-8.45L89.08-8.45L89.08-1.02L93.37-1.02L93.37 0L87.92 0L87.92-8.45ZM100.67-6.00L100.67-6.00L99.60-6.00Q99.51-7.62 97.48-7.71L97.48-7.71Q95.59-7.67 95.59-6.23L95.59-6.23Q95.59-5.31 96.60-5.17L96.60-5.17L99.00-4.62Q100.90-4.16 100.90-2.31L100.90-2.31Q100.85 0.05 97.57 0.14L97.57 0.14Q95.77 0.14 95.03-0.60L95.03-0.60Q94.11-1.29 94.16-2.72L94.16-2.72L95.26-2.72Q95.31-0.79 97.57-0.74L97.57-0.74Q99.79-0.79 99.84-2.17L99.84-2.17Q100.02-3.32 97.99-3.69L97.99-3.69L96.23-4.06Q94.43-4.57 94.43-6.10L94.43-6.10Q94.57-8.59 97.39-8.68L97.39-8.68Q100.57-8.68 100.67-6.00ZM109.03-4.20L109.03-4.20Q108.84-7.53 106.07-7.71L106.07-7.71Q103.25-7.57 103.11-4.20L103.11-4.20Q103.25-0.92 106.07-0.79L106.07-0.79Q108.84-0.97 109.03-4.20ZM110.18-4.20L110.18-4.20Q109.90 0 106.07 0.14L106.07 0.14Q102.19 0 101.91-4.20L101.91-4.20Q102.14-8.59 106.07-8.68L106.07-8.68Q109.90-8.54 110.18-4.20ZM116.09-1.02L121.17-1.02L121.17 0L114.94 0L114.94-8.45L121.08-8.45L121.08-7.48L116.09-7.48L116.09-4.85L120.71-4.85L120.71-3.83L116.09-3.83L116.09-1.02ZM124.03-8.45L128.28-1.62L128.28-8.45L129.39-8.45L129.39 0L128.10 0L123.80-6.83L123.76-6.83L123.76 0L122.65 0L122.65-8.45L124.03-8.45ZM137.47-3.56L134.88-3.56L134.88-4.53L138.58-4.53L138.58 0L137.84 0L137.56-1.06Q136.59 0.09 134.79 0.14L134.79 0.14Q133.08 0.14 132.16-0.74L132.16-0.74Q130.77-2.03 130.82-4.29L130.82-4.29Q131.14-8.50 134.84-8.68L134.84-8.68Q137.98-8.50 138.44-5.91L138.44-5.91L137.33-5.91Q136.87-7.67 134.79-7.71L134.79-7.71Q132.16-7.53 132.02-4.25L132.02-4.25Q132.02-0.74 134.84-0.74L134.84-0.74Q135.85-0.74 136.59-1.29L136.59-1.29Q137.52-2.03 137.47-3.56L137.47-3.56ZM144.40-3.65L141.63-3.65L141.63 0L140.47 0L140.47-8.45L144.40-8.45Q147.21-8.45 147.21-6.19L147.21-6.19Q147.21-4.80 146.01-4.16L146.01-4.16Q147.03-3.88 147.03-2.54L147.03-2.54L147.12-1.02Q147.08-0.37 147.54-0.18L147.54-0.18L147.54 0L146.11 0Q145.97-0.60 145.92-2.12L145.92-2.12Q145.97-3.65 144.40-3.65L144.40-3.65ZM144.49-7.53L141.63-7.53L141.63-4.62L144.30-4.62Q146.01-4.62 146.01-6.10L146.01-6.10Q146.01-7.53 144.49-7.53L144.49-7.53ZM154.42 0L153.59-2.45L150.17-2.45L149.29 0L148.14 0L151.32-8.45L152.62-8.45L155.66 0L154.42 0ZM151.88-7.20L150.54-3.46L153.17-3.46L151.92-7.20L151.88-7.20ZM157.33-8.45L159.73-1.25L162.18-8.45L163.47-8.45L160.37 0L159.13 0L156.03-8.45L157.33-8.45ZM165.82-1.02L170.90-1.02L170.90 0L164.67 0L164.67-8.45L170.81-8.45L170.81-7.48L165.82-7.48L165.82-4.85L170.44-4.85L170.44-3.83L165.82-3.83L165.82-1.02ZM175.84 0L172.43 0L172.43-8.45L175.89-8.45Q179.31-8.27 179.45-4.34L179.45-4.34Q179.26-0.09 175.84 0L175.84 0ZM175.71-7.53L173.58-7.53L173.58-0.97L175.80-0.97Q178.20-1.11 178.29-4.25L178.29-4.25Q178.25-7.43 175.71-7.53L175.71-7.53Z" transform="translate(-0.5541303232426886, 8.681375064135453)"></path></g></g></g></g></g><defs v-gra="od"></defs></svg>